<svg width="19" height="18" viewBox="0 0 19 18" fill="none" xmlns="http://www.w3.org/2000/svg">
<path d="M16.9822 7.37254C16.938 7.23829 16.8225 7.13854 16.6815 7.11754H16.6792L12.21 6.46429L10.224 2.44129C10.1827 2.20729 10.0365 2.01454 9.83623 1.91104L9.83248 1.90879C9.73573 1.86004 9.62173 1.83154 9.50098 1.83154C9.20773 1.83154 8.95423 1.99954 8.83048 2.24479L8.82823 2.24929L6.91648 6.12154L2.64223 6.74629C2.27698 6.80104 2.00098 7.11229 2.00098 7.48879C2.00098 7.69954 2.08798 7.88929 2.22748 8.02579L5.32048 11.0385L4.59073 15.2933C4.58398 15.3315 4.58023 15.375 4.58023 15.42C4.58023 15.834 4.91623 16.17 5.33023 16.17C5.45773 16.17 5.57848 16.1378 5.68348 16.0815L5.67973 16.0838L9.85123 13.89C9.92473 13.848 9.98698 13.7963 10.0395 13.7363L10.0402 13.7355L13.8735 15.7515C13.9237 15.7785 13.9845 15.7943 14.0482 15.7943C14.2552 15.7943 14.4232 15.6263 14.4232 15.4193C14.4232 15.3968 14.421 15.375 14.4172 15.354V15.3563L13.6537 10.9065L16.887 7.75654C16.9567 7.68829 17.0002 7.59304 17.0002 7.48804C17.0002 7.44679 16.9935 7.40704 16.9815 7.37029L16.9822 7.37329V7.37254ZM12.9885 10.5068C12.918 10.575 12.8745 10.671 12.8745 10.776C12.8745 10.7978 12.8767 10.8195 12.8797 10.8405V10.8383L13.548 14.733L10.1902 12.9668L9.82348 12.5078L9.49948 4.27429L9.68398 3.05254L11.6242 6.97129C11.6782 7.08004 11.7817 7.15804 11.904 7.17604H11.9062L15.819 7.74754L12.9885 10.5068Z" fill="#FFD200"/>
</svg>
