<svg width="18" height="18" viewBox="0 0 18 18" fill="none" xmlns="http://www.w3.org/2000/svg">
<path d="M13.1713 16.1692C13.0438 16.1692 12.923 16.137 12.818 16.0815L12.8218 16.0837L8.99977 14.073L5.17777 16.0837C5.07652 16.1377 4.95652 16.17 4.82827 16.17C4.41427 16.17 4.07827 15.834 4.07827 15.42C4.07827 15.375 4.08202 15.3315 4.08952 15.2887L4.08877 15.2932L4.81852 11.0385L1.72552 8.02573C1.58602 7.88924 1.49902 7.69948 1.49902 7.48873C1.49902 7.11298 1.77577 6.80098 2.13652 6.74698L2.14102 6.74623L6.41527 6.12148L8.32702 2.24923C8.46502 2.01748 8.71477 1.86523 8.99977 1.86523C9.28477 1.86523 9.53377 2.01748 9.67027 2.24548L9.67252 2.24923L11.5843 6.12223L15.8585 6.74698C16.2238 6.80173 16.4998 7.11298 16.4998 7.48948C16.4998 7.70023 16.4128 7.88998 16.2733 8.02648L13.1803 11.0392L13.91 15.294C13.9168 15.3322 13.9205 15.3765 13.9205 15.4207C13.9205 15.8347 13.5853 16.1692 13.1713 16.1692ZM8.99977 12.4755C9.12727 12.4755 9.24802 12.507 9.35302 12.5632L9.34927 12.561L12.1753 14.0475L11.636 10.902C11.6293 10.8637 11.6255 10.8195 11.6255 10.7752C11.6255 10.5652 11.7118 10.3747 11.8513 10.2382L14.1388 8.01073L10.9775 7.54873C10.7285 7.51123 10.523 7.35673 10.4158 7.14298L10.4135 7.13848L8.99977 4.27498L7.58602 7.13848C7.47652 7.35598 7.27102 7.51123 7.02652 7.54798L7.02202 7.54873L3.86077 8.01073L6.14827 10.2382C6.28777 10.3747 6.37477 10.5645 6.37477 10.7752C6.37477 10.8202 6.37102 10.8645 6.36352 10.9065L6.36427 10.902L5.82502 14.0475L8.65102 12.561C8.75227 12.507 8.87227 12.4755 8.99977 12.4755Z" fill="#FFD200"/>
</svg>
