<svg width="18" height="18" viewBox="0 0 18 18" fill="none" xmlns="http://www.w3.org/2000/svg">
<path d="M16.4633 7.25627C16.374 6.98702 16.1438 6.78827 15.8625 6.74627L15.8588 6.74552L11.5845 6.12077L9.67275 2.24777C9.53475 2.01602 9.285 1.86377 9 1.86377C8.715 1.86377 8.466 2.01602 8.3295 2.24402L8.32725 2.24777L6.4155 6.12077L2.14125 6.74552C1.776 6.80027 1.5 7.11152 1.5 7.48802C1.5 7.69877 1.587 7.88852 1.7265 8.02502L4.8195 11.0378L4.08975 15.2925C4.083 15.3308 4.07925 15.3743 4.07925 15.4193C4.07925 15.8333 4.41525 16.1693 4.82925 16.1693C4.95675 16.1693 5.0775 16.137 5.1825 16.0808L5.17875 16.083L9.00075 14.0723L12.8228 16.083C12.924 16.137 13.044 16.1693 13.1723 16.1693C13.5863 16.1693 13.9223 15.8333 13.9223 15.4193C13.9223 15.3743 13.9185 15.3308 13.911 15.288L13.9118 15.2925L13.182 11.0378L16.275 8.02502C16.4145 7.88852 16.5015 7.69877 16.5015 7.48802C16.5015 7.40552 16.488 7.32527 16.4633 7.25102L16.4648 7.25627H16.4633Z" fill="#FFD200"/>
</svg>
